HIERARCHY
ROOT ui
{
	 OFFSET 0 0 0
	 CHANNELS 3 XPosition YPosition Z Position
	 EndSite
	 {
	 OFFSET 0 -1 0
	 }
}
ROOT li
{
	 OFFSET 0 0 0
	 CHANNELS 3 XPosition YPosition Z Position
	 EndSite
	 {
	 OFFSET 0 -1 0
	 }
}
ROOT ul
{
	 OFFSET 0 0 0
	 CHANNELS 3 XPosition YPosition Z Position
	 EndSite
	 {
	 OFFSET 0 -1 0
	 }
}
ROOT ll
{
	 OFFSET 0 0 0
	 CHANNELS 3 XPosition YPosition Z Position
	 EndSite
	 {
	 OFFSET 0 -1 0
	 }
}
ROOT tt
{
	 OFFSET 0 0 0
	 CHANNELS 3 XPosition YPosition Z Position
	 EndSite
	 {
	 OFFSET 0 -1 0
	 }
}
ROOT tb
{
	 OFFSET 0 0 0
	 CHANNELS 3 XPosition YPosition Z Position
	 EndSite
	 {
	 OFFSET 0 -1 0
	 }
}
ROOT td
{
	 OFFSET 0 0 0
	 CHANNELS 3 XPosition YPosition Z Position
	 EndSite
	 {
	 OFFSET 0 -1 0
	 }
}
ROOT v
{
	 OFFSET 0 0 0
	 CHANNELS 3 XPosition YPosition Z Position
	 EndSite
	 {
	 OFFSET 0 -1 0
	 }
}
ROOT bn
{
	 OFFSET 0 0 0
	 CHANNELS 3 XPosition YPosition Z Position
	 EndSite
	 {
	 OFFSET 0 -1 0
	 }
}
MOTION
Frames: 21
Frame Time: 0.002
0.04779158401489258	-0.0018225890398025513	0		0.478737548828125	-2.54387255859375	0		-0.940472412109375	0.2737627258300781	0		-0.7724442138671875	-2.655681396484375	0		2.594774169921875	-0.4761068115234375	0		4.04781787109375	-0.2048559112548828	0		5.3235400390625	-0.17549562072753908	0		6.00478271484375	0.5645287475585937	0		-0.04329734039306641	5.965734375	0		
-0.045889888763427734	0.0028978049755096435	0		0.4718041076660156	-2.552699462890625	0		-0.9561101684570312	0.28010711669921873	0		-0.78378662109375	-2.68742138671875	0		2.581719970703125	-0.49284698486328127	0		4.042623046875	-0.22975128173828124	0		5.332787109375	-0.17565618896484375	0		5.99189892578125	0.55675341796875	0		-0.1905330810546875	5.93640234375	0		
0.04120615005493164	-0.008576182365417481	0		0.4737406311035156	-2.57066796875	0		-0.8859014892578125	0.27494528198242185	0		-0.7452662963867187	-2.729028564453125	0		2.603571533203125	-0.5171951904296875	0		4.03394482421875	-0.2275702667236328	0		5.33307275390625	-0.17565034484863282	0		5.9880517578125	0.54882373046875	0		-0.07297935485839843	5.9463935546875	0		
-0.052401969909667966	-0.00281398606300354	0		0.47093844604492185	-2.574529296875	0		-0.9595797729492187	0.27636590576171877	0		-0.7318383178710938	-2.776167724609375	0		2.588409912109375	-0.5428707885742188	0		4.057887939453125	-0.2479613494873047	0		5.339197265625	-0.18574179077148437	0		5.99250732421875	0.5567554321289062	0		-0.17558811950683595	5.947318359375	0		
0.02892784309387207	-0.0021385040283203125	0		0.48680615234375	-2.596701904296875	0		-0.955197265625	0.2804278869628906	0		-0.7251863403320312	-2.8101572265625	0		2.599171630859375	-0.572990234375	0		4.038531982421875	-0.22856239318847657	0		5.33368017578125	-0.17561314392089844	0		5.9976630859375	0.5476798095703125	0		-0.17517674255371093	5.9474384765625	0		
-0.04062580871582031	0.007254838943481445	0		0.48500982666015624	-2.598528564453125	0		-0.9557382202148438	0.28961151123046874	0		-0.6826181030273437	-2.84775537109375	0		2.59816748046875	-0.5888761596679688	0		4.058406982421875	-0.2518512268066406	0		5.34394970703125	-0.1767539825439453	0		5.99312841796875	0.556791015625	0		-0.18993704223632812	5.9378583984375	0		
0.03353798675537109	0.0011186569929122925	0		0.5127981567382812	-2.621853271484375	0		-0.8847100830078125	0.2755517578125	0		-0.6919904174804687	-2.879390625	0		2.60372119140625	-0.6278555297851562	0		4.068842529296875	-0.24194427490234374	0		5.340103515625	-0.18262496948242188	0		5.9972626953125	0.54876220703125	0		-0.04393057632446289	5.9704521484375	0		
-0.04013637924194336	0.007662195205688477	0		0.490724853515625	-2.6342490234375	0		-0.9643762817382813	0.2822266540527344	0		-0.6664534912109376	-2.913609130859375	0		2.613480712890625	-0.6528761596679687	0		4.0327802734375	-0.2571825866699219	0		5.3403232421875	-0.18254270935058595	0		5.9943408203125	0.5398822631835938	0		-0.05774376678466797	5.959927734375	0		
0.026829118728637694	-0.004269003868103027	0		0.5194589233398438	-2.654513671875	0		-0.89020703125	0.281195068359375	0		-0.6501911010742187	-2.95962158203125	0		2.6019560546875	-0.6904832763671875	0		4.03872998046875	-0.2691392822265625	0		5.33149267578125	-0.18227056884765624	0		5.98969140625	0.5490624389648437	0		-0.1897891082763672	5.93956201171875	0		
-0.039851390838623046	0.008240961074829101	0		0.5013453674316406	-2.661895263671875	0		-0.949023193359375	0.285592041015625	0		-0.6186990966796875	-2.988859130859375	0		2.610434326171875	-0.7244111938476563	0		4.062542236328125	-0.2853848571777344	0		5.33472314453125	-0.17518438720703125	0		6.0026572265625	0.539950927734375	0		-0.17332954406738282	5.94859033203125	0		
0.03716008758544922	0.006217020988464356	0		0.5012940673828125	-2.661554443359375	0		-0.9489716186523437	0.2859833984375	0		-0.6422432861328125	-3.015061767578125	0		2.61910791015625	-0.7433026733398438	0		4.047701904296875	-0.2778999938964844	0		5.33579443359375	-0.17303060913085938	0		6.00271728515625	0.5400996704101563	0		-0.17406224060058595	5.94997265625	0		
-0.03984512710571289	0.009008308410644532	0		0.5017975769042968	-2.681181884765625	0		-0.890898193359375	0.2913799133300781	0		-0.59394091796875	-3.0455087890625	0		2.597525146484375	-0.7716121826171874	0		4.011373291015625	-0.29299526977539064	0		5.31680908203125	-0.16948361206054688	0		5.994703125	0.5404239501953125	0		-0.05764086151123047	5.9622939453125	0		
0.02682539749145508	-0.0027441699504852294	0		0.5213504638671875	-2.693107421875	0		-0.8950784912109375	0.2879416198730469	0		-0.6237916259765625	-3.0785029296875	0		2.5745654296875	-0.8158580322265625	0		4.030021484375	-0.30504278564453124	0		5.3084306640625	-0.18309555053710938	0		5.9946044921875	0.5406383056640625	0		-0.1898991241455078	5.9431357421875	0		
-0.05135446166992187	1.6393299400806427E-4	0		0.524756103515625	-2.70770068359375	0		-0.9044203491210937	0.28064129638671875	0		-0.558755859375	-3.1131669921875	0		2.574760009765625	-0.8464794921875	0		4.022600341796875	-0.315583251953125	0		5.31233837890625	-0.17589102172851562	0		5.99827099609375	0.5328168334960938	0		-0.056504886627197264	5.962232421875	0		
0.026310239791870117	-0.00170701003074646	0		0.5160294189453125	-2.7240341796875	0		-0.9813737182617187	0.30061404418945314	0		-0.6156007080078125	-3.1345830078125	0		2.540899169921875	-0.874445068359375	0		3.998522216796875	-0.30178060913085936	0		5.3120263671875	-0.17557635498046875	0		5.989990234375	0.533247314453125	0		-0.17573509216308594	5.953935546875	0		
-0.04087773132324219	0.011088866233825684	0		0.5305831909179688	-2.71974853515625	0		-0.9077718505859375	0.2998925476074219	0		-0.5466735229492188	-3.16424267578125	0		2.55289697265625	-0.905204833984375	0		3.9927294921875	-0.3222777709960937	0		5.30574853515625	-0.16811668395996093	0		5.99761328125	0.5334244384765625	0		-0.057678348541259764	5.96437744140625	0		
0.03252752685546875	0.005361385822296142	0		0.534681396484375	-2.735241943359375	0		-0.91739501953125	0.2927151794433594	0		-0.5497391357421875	-3.187560546875	0		2.534931396484375	-0.9283834228515625	0		4.003404052734375	-0.3120343933105469	0		5.28634326171875	-0.16238270568847657	0		5.99299951171875	0.5258573608398438	0		-0.176111328125	5.95514990234375	0		
-0.05313080215454102	0.0025637059211730956	0		0.5646488647460938	-2.75317724609375	0		-0.9228717651367188	0.2984956359863281	0		-0.5179921875	-3.216484130859375	0		2.55597802734375	-0.9462401123046875	0		3.982630126953125	-0.3211883850097656	0		5.2857548828125	-0.16195855712890625	0		5.9924404296875	0.526251220703125	0		-0.05921968841552734	5.96666943359375	0		
0.0241723575592041	8.159520030021668E-4	0		0.534835693359375	-2.753992431640625	0		-0.9235247802734375	0.29921197509765624	0		-0.5171779174804687	-3.23681787109375	0		2.54090869140625	-0.96541064453125	0		3.972989013671875	-0.3185141296386719	0		5.276083984375	-0.16133883666992188	0		5.98379833984375	0.5268228759765625	0		-0.05865256118774414	5.9663310546875	0		
-0.054537517547607425	0.003943378925323486	0		0.541777587890625	-2.764461669921875	0		-0.9242537841796875	0.29994778442382813	0		-0.5123472900390625	-3.252206298828125	0		2.50994921875	-0.9742656860351563	0		3.9811962890625	-0.32014501953125	0		5.26946533203125	-0.15374978637695313	0		5.9952236328125	0.5350524291992188	0		-0.17538522338867188	5.95516162109375	0		
0.047547706604003905	-0.0022364609241485598	0		0.5159561157226562	-2.75831396484375	0		-0.9218271484375	0.3126387939453125	0		-0.5055433959960938	-3.265619384765625	0		2.53413671875	-0.9721165771484375	0		3.97060009765625	-0.30741372680664064	0		5.27865185546875	-0.15343637084960937	0		5.9784423828125	0.5358143920898437	0		-0.04453042984008789	5.97746728515625	0		
